<?xml version="1.0" standalone="no"?><!DOCTYPE svg PUBLIC "-//W3C//DTD SVG 1.1//EN" "http://www.w3.org/Graphics/SVG/1.1/DTD/svg11.dtd"><svg t="1676883918753" class="icon" viewBox="0 0 1024 1024" version="1.1" xmlns="http://www.w3.org/2000/svg" p-id="8139" xmlns:xlink="http://www.w3.org/1999/xlink" width="200" height="200"><path d="M511.2 945.54666667c-247.4 0-448.68-201.28-448.68-448.68S263.8 48.14666667 511.2 48.14666667s448.68 201.28 448.68 448.68-201.24 448.72-448.68 448.72z m0-856.6c-224.92 0-407.88 182.96-407.88 407.88S286.32 904.74666667 511.2 904.74666667s407.88-182.96 407.88-407.88S736.12 88.94666667 511.2 88.94666667z" p-id="8140"></path><path d="M342.04 401.14666667c-27.24-7.2-47.48-31.84-47.48-61.32 0-35.08 28.56-63.64 63.64-63.64 34.12 0 61.8 27.04 63.36 60.76l29.6 24.64c1.64-7.12 2.52-14.44 2.52-21.76 0-52.64-42.84-95.48-95.48-95.48S262.72 287.18666667 262.72 339.82666667s42.84 95.48 95.48 95.48c2.8 0 5.6-0.2 8.36-0.44l-24.52-33.72zM676.64 401.14666667c27.24-7.2 47.48-31.84 47.48-61.32 0-35.08-28.56-63.64-63.64-63.64-34.12 0-61.8 27.04-63.36 60.76l-29.6 24.64c-1.64-7.12-2.52-14.44-2.52-21.76 0-52.64 42.84-95.48 95.48-95.48s95.48 42.84 95.48 95.48-42.84 95.48-95.48 95.48c-2.8 0-5.6-0.2-8.36-0.44l24.52-33.72zM342.04 596.74666667c-27.24 7.2-47.48 31.84-47.48 61.32 0 35.08 28.56 63.64 63.64 63.64 34.12 0 61.8-27.04 63.36-60.76l29.6-24.64c1.64 7.12 2.52 14.44 2.52 21.76 0 52.64-42.84 95.48-95.48 95.48S262.72 710.66666667 262.72 658.02666667c0-52.64 42.84-95.48 95.48-95.48 2.8 0 5.6 0.2 8.36 0.44l-24.52 33.76zM676.64 596.74666667c27.24 7.2 47.48 31.84 47.48 61.32 0 35.08-28.56 63.64-63.64 63.64-34.12 0-61.8-27.04-63.36-60.76l-29.6-24.64c-1.64 7.12-2.52 14.44-2.52 21.76 0 52.64 42.84 95.48 95.48 95.48s95.48-42.84 95.48-95.48-42.84-95.48-95.48-95.48c-2.8 0-5.6 0.2-8.36 0.44l24.52 33.72z" p-id="8141"></path><path d="M509.32 498.94666667m-23.88 0a23.88 23.88 0 1 0 47.76 0 23.88 23.88 0 1 0-47.76 0Z" p-id="8142"></path><path d="M624.16 568.74666667c-56.52-56.52-56.52-83.12 0-139.68l64.2-64.2a31.796 31.796 0 0 0 0-45 31.796 31.796 0 0 0-45 0l-64.2 64.2c-56.52 56.52-83.12 56.52-139.68 0L375.28 319.90666667a31.796 31.796 0 0 0-45 0 31.796 31.796 0 0 0 0 45l64.2 64.2c56.52 56.52 56.52 83.12 0 139.68l-64.2 64.2a31.796 31.796 0 0 0 0 45 31.796 31.796 0 0 0 45 0l64.2-64.2c56.52-56.52 83.12-56.52 139.68 0l64.2 64.2c12.44 12.44 32.56 12.44 45 0s12.44-32.56 0-45l-64.2-64.24z m-114.84-30.04c-21.92 0-39.76-17.84-39.76-39.76s17.84-39.76 39.76-39.76 39.76 17.84 39.76 39.76-17.8 39.76-39.76 39.76z" p-id="8143"></path></svg>