<?xml version="1.0" standalone="no"?><!DOCTYPE svg PUBLIC "-//W3C//DTD SVG 1.1//EN" "http://www.w3.org/Graphics/SVG/1.1/DTD/svg11.dtd"><svg t="1676816386683" class="icon" viewBox="0 0 1024 1024" version="1.1" xmlns="http://www.w3.org/2000/svg" p-id="3672" xmlns:xlink="http://www.w3.org/1999/xlink" width="200" height="200"><path d="M630.4 291.2c16-6.4 35.2 3.2 41.6 19.2 6.4 16-3.2 32-16 38.4l-134.4 44.8 268.8 188.8c22.4 16 16 48-6.4 57.6l-387.2 96c-16 3.2-35.2-6.4-38.4-22.4-3.2-16 3.2-32 19.2-38.4l320-80-262.4-182.4c-19.2-12.8-16-44.8 3.2-54.4l192-67.2z" fill="#d4237a" p-id="3673"></path><path d="M288 608c70.4 0 128 57.6 128 128s-57.6 128-128 128-128-57.6-128-128 57.6-128 128-128z m0 64c-35.2 0-64 28.8-64 64s28.8 64 64 64 64-28.8 64-64-28.8-64-64-64zM768 192c35.2 0 64 28.8 64 64s-28.8 64-64 64-64-28.8-64-64 28.8-64 64-64z" fill="#d4237a" p-id="3674"></path></svg>