<?xml version="1.0" standalone="no"?><!DOCTYPE svg PUBLIC "-//W3C//DTD SVG 1.1//EN" "http://www.w3.org/Graphics/SVG/1.1/DTD/svg11.dtd"><svg t="1676861599769" class="icon" viewBox="0 0 1024 1024" version="1.1" xmlns="http://www.w3.org/2000/svg" p-id="1476" xmlns:xlink="http://www.w3.org/1999/xlink" width="200" height="200"><path d="M964.631288 736.523333l-110.061634-233.884219V398.107051c0-188.750053-153.545524-342.349553-342.349553-342.349554s-342.349553 153.602499-342.349553 342.349554v104.532063L59.79592 736.523333a42.7812 42.7812 0 0 0 38.744974 60.996195h200.903712c5.990368 66.244888 55.004828 171.175776 212.772496 171.175776S718.992234 863.759418 724.9876 797.518528h200.898714a42.7812 42.7812 0 0 0 38.739976-60.996195zM512.217102 883.106916c-99.056469 0-121.53659-56.260276-126.618357-85.588388h253.230717c-5.138742 29.386086-27.561888 85.588388-126.61236 85.588388zM165.980257 711.926142l85.418463-181.447263a42.837175 42.837175 0 0 0 4.056217-18.258976V398.107051c0-141.56279 115.199375-256.764164 256.762165-256.764165 141.617766 0 256.766163 115.201374 256.766164 256.764165v114.11785a42.89315 42.89315 0 0 0 4.046222 18.258976l85.417463 181.442265z" p-id="1477"></path></svg>