<?xml version="1.0" standalone="no"?><!DOCTYPE svg PUBLIC "-//W3C//DTD SVG 1.1//EN" "http://www.w3.org/Graphics/SVG/1.1/DTD/svg11.dtd"><svg t="1676883576774" class="icon" viewBox="0 0 1024 1024" version="1.1" xmlns="http://www.w3.org/2000/svg" p-id="4847" xmlns:xlink="http://www.w3.org/1999/xlink" width="200" height="200"><path d="M810.666667 725.333333c-25.6 0-42.666667 17.066667-42.666667 42.666667v42.666667c0 25.6-17.066667 42.666667-42.666667 42.666666H298.666667c-25.6 0-42.666667-17.066667-42.666667-42.666666v-213.333334c0-25.6-17.066667-42.666667-42.666667-42.666666s-42.666667 17.066667-42.666666 42.666666v213.333334c0 72.533333 55.466667 128 128 128h426.666666c72.533333 0 128-55.466667 128-128v-42.666667c0-25.6-17.066667-42.666667-42.666666-42.666667zM725.333333 85.333333H298.666667C226.133333 85.333333 170.666667 140.8 170.666667 213.333333v42.666667c0 25.6 17.066667 42.666667 42.666666 42.666667s42.666667-17.066667 42.666667-42.666667V213.333333c0-25.6 17.066667-42.666667 42.666667-42.666666h426.666666c25.6 0 42.666667 17.066667 42.666667 42.666666v213.333334c0 25.6 17.066667 42.666667 42.666667 42.666666s42.666667-17.066667 42.666666-42.666666V213.333333c0-72.533333-55.466667-128-128-128z" fill="#dbdbdb" p-id="4848"></path><path d="M170.666667 405.333333c0 25.6 17.066667 42.666667 42.666666 42.666667h426.666667c17.066667 0 29.866667-8.533333 38.4-21.333333 8.533333-12.8 4.266667-29.866667-4.266667-42.666667l-93.866666-128c-12.8-17.066667-42.666667-21.333333-59.733334-8.533333-17.066667 12.8-21.333333 42.666667-8.533333 59.733333l42.666667 59.733333H213.333333c-25.6-4.266667-42.666667 12.8-42.666666 38.4zM810.666667 576H384c-17.066667 0-29.866667 8.533333-38.4 25.6-8.533333 12.8-4.266667 29.866667 4.266667 46.933333l98.133333 128c8.533333 12.8 21.333333 17.066667 34.133333 17.066667 8.533333 0 17.066667-4.266667 25.6-8.533333 17.066667-12.8 21.333333-42.666667 8.533334-59.733334L469.333333 661.333333h341.333334c25.6 0 42.666667-17.066667 42.666666-42.666666s-17.066667-42.666667-42.666666-42.666667z" fill="#dbdbdb" p-id="4849"></path></svg>